<svg width="432" height="137" viewBox="0 0 432 137" fill="none" xmlns="http://www.w3.org/2000/svg">
<g clip-path="url(#clip0_694_11076)">
<path d="M70.7062 56.7196C70.8449 57.1319 70.7323 57.5856 70.4246 57.8933L48.9916 79.3263C48.5355 79.7824 48.5355 80.5214 48.9916 80.9775L51.3289 83.3148C51.7856 83.7715 52.5264 83.7715 52.983 83.3148L70.6319 65.666C71.3219 64.9759 72.4895 65.3871 72.5407 66.3613C72.5743 67.0018 72.5913 67.6468 72.5913 68.2957C72.5913 88.3412 56.3412 104.591 36.2957 104.591C27.7418 104.591 19.8791 101.632 13.6752 96.6821C13.1432 96.2576 13.1137 95.4676 13.5949 94.9863L62.9847 45.5965C63.4665 45.1147 64.2585 45.1442 64.6834 45.6768C67.2906 48.9447 69.3453 52.6727 70.7062 56.7196Z" fill="#09090B"/>
<path d="M58.9963 41.6049C59.4776 41.1237 59.448 40.3337 58.916 39.9092C52.7122 34.959 44.8495 32 36.2957 32C16.2501 32 0 48.2501 0 68.2957C0 68.9445 0.0170268 69.5894 0.050658 70.2299C0.10181 71.2041 1.26936 71.6153 1.95946 70.9253L19.6101 53.2746C20.0667 52.818 20.8075 52.818 21.2641 53.2746L23.6015 55.612C24.0576 56.0681 24.0576 56.8071 23.6015 57.2631L2.16672 78.698C1.859 79.0057 1.74644 79.4593 1.88509 79.8717C3.24595 83.9185 5.30068 87.6466 7.90788 90.9144C8.33278 91.447 9.12471 91.4766 9.60652 90.9948L58.9963 41.6049Z" fill="#09090B"/>
<path d="M115.696 89.376C111.772 89.376 108.392 88.5393 105.557 86.866C102.74 85.1754 100.562 82.8034 99.0231 79.75C97.5019 76.6794 96.7413 73.0825 96.7413 68.9596C96.7413 64.8884 97.5019 61.3002 99.0231 58.195C100.562 55.0899 102.705 52.6661 105.454 50.9238C108.219 49.1815 111.452 48.3103 115.151 48.3103C117.398 48.3103 119.576 48.6812 121.685 49.423C123.794 50.1648 125.687 51.3292 127.364 52.9163C129.04 54.5034 130.363 56.5648 131.331 59.1007C132.299 61.6193 132.783 64.6814 132.783 68.2868V71.0297H101.123V65.2334H125.186C125.186 63.1978 124.771 61.3951 123.941 59.8252C123.111 58.2382 121.945 56.9875 120.441 56.0732C118.954 55.1589 117.208 54.7017 115.203 54.7017C113.025 54.7017 111.123 55.2365 109.499 56.3061C107.891 57.3584 106.646 58.7384 105.765 60.4463C104.9 62.1369 104.468 63.9741 104.468 65.9579V70.4863C104.468 73.1429 104.935 75.4028 105.868 77.2659C106.819 79.129 108.142 80.5522 109.836 81.5355C111.53 82.5015 113.509 82.9845 115.773 82.9845C117.243 82.9845 118.582 82.7775 119.792 82.3635C121.002 81.9322 122.048 81.294 122.93 80.4487C123.811 79.6034 124.486 78.5597 124.952 77.3176H132.36C131.886 82.7682 128.322 86.163 123.448 88.0563C121.184 88.9361 118.6 89.376 115.696 89.376Z" fill="#09090B"/>
<path d="M148.505 65.1952V88.7944H140.753V49.0484H148.194V55.5174H148.687C149.603 53.4128 151.038 51.7222 152.991 50.4457C154.962 49.1691 157.442 48.5308 160.433 48.5308C163.147 48.5308 165.524 49.1001 167.563 50.2387C169.603 51.36 171.185 53.0333 172.308 55.2587C173.432 57.484 173.994 60.2355 173.994 63.5132V88.7944H166.241V64.4448C166.241 61.5639 165.489 59.3126 163.985 57.691C162.481 56.0522 160.416 55.2328 157.788 55.2328C155.99 55.2328 154.391 55.6209 152.991 56.3972C151.608 57.1735 150.511 58.3121 149.698 59.8129C148.903 61.2965 148.505 63.0906 148.505 65.1952Z" fill="#09090B"/>
<path d="M189.928 41.4003V88.8585H182.176V41.4003H189.928Z" fill="#09090B"/>
<path d="M201.855 104.491C200.753 104.491 199.47 104.531 198.432 104.071V97.7886C199.951 97.8637 201.111 97.8404 202.218 97.7886C203.324 97.7369 204.301 97.3229 205.148 96.5466C206.012 95.7703 206.773 94.5023 207.43 92.7427L208.45 88.1015L194.757 48.984H202.377L212.474 79.4888H212.889L222.965 48.984H230.569L214.612 94.8905C213.851 96.9606 212.883 98.7115 211.708 100.143C210.532 101.592 209.132 102.679 207.507 103.404C205.882 104.128 203.998 104.491 201.855 104.491Z" fill="#09090B"/>
<path d="M256.56 49.0866V55.2969C253.794 55.2969 252.758 55.3228 250.526 55.3228C250.257 55.3228 249.331 55.3228 249.066 55.3228C244.767 55.3228 240.877 55.3228 235.479 55.3228V49.1125L256.56 49.0866ZM241.313 41.3354H245.19H249.066C249.066 41.3354 249.066 47.6238 249.066 55.3228C249.066 55.5853 249.066 56.7172 249.066 56.9835C249.066 63.7627 249.066 70.8524 249.066 77.1883C249.066 78.6891 249.291 79.819 249.74 80.5781C250.19 81.3198 250.769 81.8287 251.477 82.1048C252.203 82.3635 252.99 82.4929 253.837 82.4929C254.459 82.4929 255.004 82.4498 255.471 82.3635C255.937 82.2773 256.3 82.2083 256.56 82.1565V88.8585C253.7 89.9562 249.972 89.4718 247.225 88.2892C245.462 87.5302 244.036 86.3571 242.947 84.77C241.858 83.1829 241.313 81.1905 241.313 78.7926V41.3354Z" fill="#09090B"/>
<path d="M272.36 65.2593V88.8585H264.607V49.1125H272.049V55.5815H272.542C273.458 53.4769 274.893 51.7863 276.846 50.5098C278.817 49.2332 281.297 48.5949 284.288 48.5949C287.002 48.5949 289.378 49.1642 291.418 50.3028C293.458 51.4241 295.04 53.0974 296.163 55.3228C297.287 57.5481 297.849 60.2997 297.849 63.5773V88.8585H290.096V64.5089C290.096 61.628 289.344 59.3767 287.84 57.7551C286.336 56.1163 284.27 55.2969 281.643 55.2969C279.845 55.2969 278.246 55.685 276.846 56.4613C275.463 57.2376 274.365 58.3762 273.553 59.877C272.758 61.3606 272.36 63.1547 272.36 65.2593Z" fill="#09090B"/>
<path d="M330.059 65.2593V88.8585H322.306V49.1125H329.748V55.5815H330.241C331.157 53.4769 332.592 51.7863 334.545 50.5098C336.516 49.2332 338.996 48.5949 341.987 48.5949C344.701 48.5949 347.077 49.1642 349.117 50.3028C351.157 51.4241 352.739 53.0974 353.862 55.3228C354.986 57.5481 355.548 60.2997 355.548 63.5773V88.8585H347.795V64.5089C347.795 61.628 347.043 59.3767 345.539 57.7551C344.035 56.1163 341.969 55.2969 339.342 55.2969C337.544 55.2969 335.945 55.685 334.545 56.4613C333.162 57.2376 332.064 58.3762 331.252 59.877C330.457 61.3606 330.059 63.1547 330.059 65.2593Z" fill="#09090B"/>
<path d="M382.031 104.591C378.868 104.591 376.145 104.177 373.863 103.349C369.378 101.709 364.89 97.8544 364.263 92.8434H371.763C373.001 94.8557 374.675 96.4776 376.845 97.4494C378.211 98.0532 379.965 98.3551 382.109 98.3551C385.048 98.3551 387.476 97.6392 389.395 96.2073C391.314 94.7928 392.273 92.5329 392.273 89.4277V81.6131H391.781C391.314 82.4584 390.64 83.3986 389.758 84.4336C388.894 85.4687 387.701 86.3657 386.18 87.1248C384.659 87.8838 382.679 88.2633 380.242 88.2633C377.096 88.2633 374.261 87.5302 371.737 86.0638C369.231 84.5803 367.243 82.398 365.774 79.5171C364.322 76.619 363.596 73.0567 363.596 68.8302C363.596 64.6037 364.313 60.9811 365.748 57.9622C367.2 54.9433 369.188 52.6316 371.711 51.0273C374.235 49.4057 377.096 48.5949 380.294 48.5949C382.766 48.5949 384.762 49.009 386.284 49.837C387.805 50.6478 388.989 51.5966 389.836 52.6834C390.7 53.7702 391.366 54.7276 391.832 55.5557H392.403V49.1125H400V89.7383C400 93.1539 399.205 95.9572 397.615 98.1481C396.024 100.339 393.872 101.961 391.158 103.013C388.462 104.065 385.419 104.591 382.031 104.591ZM381.953 81.846C384.183 81.846 386.067 81.3285 387.606 80.2934C389.162 79.2411 390.337 77.7403 391.132 75.7909C391.945 73.8243 392.351 71.4696 392.351 68.7267C392.351 66.0528 391.953 63.6981 391.158 61.6625C390.363 59.6269 389.196 58.0398 387.658 56.9012C386.119 55.7454 384.218 55.1675 381.953 55.1675C379.62 55.1675 377.675 55.7713 376.119 56.9789C374.564 58.1692 373.388 59.7907 372.593 61.8436C371.815 63.8965 371.426 66.1908 371.426 68.7267C371.426 71.3316 371.824 73.6173 372.619 75.5839C373.414 77.5505 374.59 79.0859 376.145 80.1899C377.718 81.294 379.654 81.846 381.953 81.846Z" fill="#09090B"/>
<path d="M305.973 88.8703V52.9243C310.004 53.9296 310.081 54.0459 314.182 52.9243V88.8703H305.973Z" fill="#09090B"/>
<path d="M314.182 45.1984C314.182 47.4652 312.344 49.3028 310.078 49.3028C307.811 49.3028 305.973 47.4652 305.973 45.1984C305.973 42.9316 307.811 41.094 310.078 41.094C312.344 41.094 314.182 42.9316 314.182 45.1984Z" fill="#09090B"/>
</g>
<defs>
<clipPath id="clip0_694_11076">
<rect width="400" height="73" fill="white" transform="translate(0 32)"/>
</clipPath>
</defs>
</svg>
