<svg width="400" height="72" viewBox="0 0 400 72" fill="none" xmlns="http://www.w3.org/2000/svg">
<path d="M70.0857 24.5182C70.2232 24.9272 70.1116 25.3772 69.8066 25.6824L48.5616 46.9408C48.1096 47.3931 48.1096 48.1261 48.5616 48.5785L50.8785 50.8968C51.3311 51.3497 52.0654 51.3497 52.5181 50.8968L70.012 33.3917C70.6961 32.7073 71.8534 33.1152 71.9041 34.0814C71.9374 34.7167 71.9543 35.3564 71.9543 36C71.9543 55.8822 55.8468 72 35.9771 72C27.4984 72 19.7046 69.0651 13.5552 64.1552C13.0279 63.7342 12.9986 62.9505 13.4756 62.4732L62.432 13.4857C62.9096 13.0078 63.6946 13.0372 64.1158 13.5654C66.7001 16.8066 68.7368 20.5043 70.0857 24.5182Z" fill="white"/>
<path d="M58.4786 9.52669C58.9556 9.04939 58.9263 8.26577 58.399 7.84472C52.2496 2.93486 44.4559 0 35.9771 0C16.1075 0 0 16.1177 0 36C0 36.6436 0.0168774 37.2832 0.0502134 37.9185C0.100917 38.8847 1.25822 39.2926 1.94226 38.6082L19.438 21.1013C19.8906 20.6484 20.6249 20.6484 21.0775 21.1013L23.3944 23.4197C23.8465 23.872 23.8465 24.605 23.3944 25.0573L2.1477 46.3175C1.84269 46.6228 1.73111 47.0727 1.86855 47.4817C3.21746 51.4956 5.25416 55.1933 7.83848 58.4345C8.25966 58.9627 9.04464 58.9921 9.52222 58.5142L58.4786 9.52669Z" fill="white"/>
<path d="M118.19 56.9087C114.301 56.9087 110.951 56.0788 108.141 54.4191C105.348 52.7423 103.189 50.3896 101.664 47.3611C100.156 44.3155 99.4023 40.748 99.4023 36.6586C99.4023 32.6205 100.156 29.0616 101.664 25.9817C103.189 22.9019 105.314 20.4979 108.038 18.7697C110.78 17.0416 113.984 16.1775 117.651 16.1775C119.878 16.1775 122.037 16.5454 124.127 17.2811C126.218 18.0169 128.094 19.1718 129.756 20.746C131.418 22.3201 132.729 24.3648 133.688 26.88C134.648 29.3781 135.128 32.4152 135.128 35.9913V38.7118H103.746V32.9628H127.597C127.597 30.9437 127.186 29.1557 126.363 27.5987C125.541 26.0245 124.384 24.784 122.894 23.8772C121.42 22.9703 119.69 22.5169 117.702 22.5169C115.543 22.5169 113.658 23.0473 112.048 24.1081C110.454 25.1519 109.22 26.5207 108.347 28.2146C107.49 29.8914 107.061 31.7137 107.061 33.6814V38.1729C107.061 40.8078 107.524 43.0493 108.449 44.8972C109.392 46.7451 110.703 48.1567 112.382 49.132C114.061 50.0902 116.023 50.5693 118.267 50.5693C119.724 50.5693 121.052 50.364 122.251 49.9533C123.451 49.5256 124.487 48.8925 125.361 48.0541C126.235 47.2157 126.903 46.1805 127.366 44.9485H134.709C134.239 50.3547 130.706 53.7218 125.875 55.5997C123.63 56.4724 121.069 56.9087 118.19 56.9087Z" fill="white"/>
<path d="M150.769 32.693V56.1H143.084V16.6777H150.46V23.0941H150.949C151.857 21.0067 153.279 19.3298 155.215 18.0637C157.169 16.7975 159.627 16.1644 162.592 16.1644C165.282 16.1644 167.638 16.7291 169.66 17.8584C171.682 18.9705 173.249 20.6302 174.363 22.8375C175.477 25.0447 176.034 27.7738 176.034 31.0248V56.1H168.349V31.9487C168.349 29.0913 167.604 26.8584 166.113 25.25C164.622 23.6245 162.575 22.8118 159.97 22.8118C158.188 22.8118 156.603 23.1968 155.215 23.9667C153.845 24.7367 152.757 25.866 151.951 27.3546C151.163 28.8261 150.769 30.6056 150.769 32.693Z" fill="white"/>
<path d="M191.772 9.32377V56.3954H184.087V9.32377H191.772Z" fill="white"/>
<path d="M203.593 71.9001C202.501 71.9001 201.229 71.9401 200.201 71.4835V65.2528C201.706 65.3272 202.857 65.3041 203.953 65.2528C205.05 65.2014 206.018 64.7908 206.857 64.0208C207.714 63.2509 208.468 61.9933 209.119 60.248L210.131 55.6446L196.558 16.8457H204.111L214.119 47.102H214.531L224.518 16.8457H232.056L216.239 62.3782C215.485 64.4315 214.525 66.1682 213.36 67.5883C212.195 69.0256 210.807 70.1036 209.196 70.8222C207.586 71.5408 205.718 71.9001 203.593 71.9001Z" fill="white"/>
<path d="M257.818 16.9475V23.1072C255.077 23.1072 254.05 23.1329 251.838 23.1329C251.571 23.1329 250.653 23.1329 250.39 23.1329C246.129 23.1329 242.273 23.1329 236.923 23.1329V16.9731L257.818 16.9475ZM242.706 9.5558H250.39C250.39 9.5558 250.39 15.4966 250.39 23.1329C250.39 23.3933 250.39 24.5159 250.39 24.7801C250.39 31.504 250.39 38.5359 250.39 44.8202C250.39 46.3088 250.613 47.4296 251.059 48.1824C251.504 48.9182 252.078 49.4229 252.781 49.6967C253.5 49.9533 254.28 50.0817 255.119 50.0817C255.736 50.0817 256.276 50.0389 256.739 49.9533C257.201 49.8678 257.561 49.7993 257.818 49.748V56.3954C254.983 57.4842 251.289 57.0037 248.566 55.8307C246.818 55.0779 245.404 53.9144 244.325 52.3402C243.245 50.7661 242.706 48.7898 242.706 46.4115V9.5558Z" fill="white"/>
<path d="M273.48 32.9884V56.3954H265.795V16.9731H273.172V23.3895H273.66C274.568 21.3021 275.99 19.6252 277.926 18.3591C279.88 17.0929 282.339 16.4598 285.303 16.4598C287.993 16.4598 290.349 17.0245 292.371 18.1538C294.393 19.2659 295.961 20.9256 297.074 23.1329C298.188 25.3401 298.745 28.0692 298.745 31.3202V56.3954H291.06V32.2441C291.06 29.3867 290.315 27.1538 288.824 25.5454C287.333 23.9199 285.286 23.1072 282.681 23.1072C280.899 23.1072 279.314 23.4922 277.926 24.2621C276.556 25.0321 275.468 26.1614 274.662 27.65C273.874 29.1215 273.48 30.901 273.48 32.9884Z" fill="white"/>
<path d="M330.673 32.9884V56.3954H322.988V16.9731H330.364V23.3895H330.853C331.761 21.3021 333.183 19.6252 335.119 18.3591C337.073 17.0929 339.531 16.4598 342.496 16.4598C345.186 16.4598 347.542 17.0245 349.564 18.1538C351.585 19.2659 353.153 20.9256 354.267 23.1329C355.381 25.3401 355.938 28.0692 355.938 31.3202V56.3954H348.253V32.2441C348.253 29.3867 347.507 27.1538 346.017 25.5454C344.526 23.9199 342.478 23.1072 339.874 23.1072C338.092 23.1072 336.507 23.4922 335.119 24.2621C333.748 25.0321 332.66 26.1614 331.855 27.65C331.067 29.1215 330.673 30.901 330.673 32.9884Z" fill="white"/>
<path d="M382.189 72C379.053 72 376.354 71.5894 374.093 70.7681C369.647 69.1413 365.198 65.318 364.577 60.3479H372.011C373.237 62.3437 374.897 63.9525 377.048 64.9163C378.402 65.5152 380.141 65.8146 382.266 65.8146C385.179 65.8146 387.586 65.1045 389.488 63.6844C391.39 62.2813 392.341 60.0399 392.341 56.96V49.209H391.853C391.39 50.0474 390.722 50.9799 389.848 52.0066C388.991 53.0332 387.809 53.9229 386.301 54.6758C384.793 55.4286 382.831 55.8051 380.415 55.8051C377.297 55.8051 374.487 55.0779 371.985 53.6235C369.501 52.152 367.53 49.9876 366.074 47.1301C364.634 44.2556 363.915 40.7223 363.915 36.5303C363.915 32.3382 364.626 28.7451 366.048 25.7507C367.487 22.7564 369.458 20.4636 371.959 18.8724C374.461 17.264 377.297 16.4598 380.467 16.4598C382.917 16.4598 384.896 16.8705 386.404 17.6918C387.912 18.496 389.085 19.437 389.925 20.515C390.782 21.5929 391.441 22.5426 391.904 23.3639H392.469V16.9731H400V57.268C400 60.6558 399.212 63.4363 397.635 65.6093C396.059 67.7823 393.926 69.3907 391.236 70.4344C388.563 71.4781 385.547 72 382.189 72ZM382.112 49.44C384.322 49.44 386.19 48.9267 387.715 47.9001C389.257 46.8564 390.422 45.3678 391.21 43.4343C392.015 41.4837 392.418 39.1481 392.418 36.4276C392.418 33.7755 392.024 31.4399 391.236 29.4209C390.448 27.4019 389.291 25.8277 387.766 24.6985C386.241 23.5521 384.356 22.9789 382.112 22.9789C379.798 22.9789 377.871 23.5777 376.329 24.7755C374.787 25.9561 373.621 27.5644 372.833 29.6006C372.062 31.6367 371.677 33.9124 371.677 36.4276C371.677 39.0113 372.071 41.2784 372.859 43.229C373.647 45.1795 374.812 46.7024 376.354 47.7974C377.914 48.8925 379.833 49.44 382.112 49.44Z" fill="white"/>
<path d="M306.798 56.4071V20.7539C308.749 20.7539 309.562 20.7964 310.982 20.7539C312.021 20.7539 313.136 20.7539 314.935 20.7539V56.4071H306.798Z" fill="white"/>
<path d="M314.935 13.3304C314.935 15.5787 313.113 17.4014 310.866 17.4014C308.62 17.4014 306.798 15.5787 306.798 13.3304C306.798 11.0821 308.62 9.25946 310.866 9.25946C313.113 9.25946 314.935 11.0821 314.935 13.3304Z" fill="white"/>
</svg>
