<svg width="100" height="18" viewBox="0 0 100 18" fill="none" xmlns="http://www.w3.org/2000/svg">
<g clip-path="url(#clip0_696_2906)">
<path d="M17.5214 6.12955C17.5558 6.2318 17.5279 6.3443 17.4517 6.4206L12.1404 11.7352C12.0274 11.8483 12.0274 12.0315 12.1404 12.1446L12.7196 12.7242C12.8328 12.8374 13.0164 12.8374 13.1295 12.7242L17.503 8.34793C17.674 8.17683 17.9634 8.2788 17.976 8.52035C17.9844 8.67918 17.9886 8.8391 17.9886 9C17.9886 13.9706 13.9617 18 8.99428 18C6.8746 18 4.92615 17.2663 3.3888 16.0388C3.25698 15.9336 3.24965 15.7376 3.3689 15.6183L15.608 3.37143C15.7274 3.25195 15.9237 3.2593 16.029 3.39135C16.675 4.20165 17.1842 5.12608 17.5214 6.12955Z" fill="#09090B"/>
<path d="M14.6196 2.38167C14.7389 2.26235 14.7316 2.06644 14.5997 1.96118C13.0624 0.733715 11.114 0 8.99428 0C4.02688 0 0 4.02943 0 9C0 9.1609 0.00421935 9.3208 0.0125534 9.47962C0.0252293 9.72117 0.314555 9.82315 0.485565 9.65205L4.8595 5.27532C4.97265 5.1621 5.15622 5.1621 5.26937 5.27532L5.8486 5.85493C5.96162 5.968 5.96162 6.15125 5.8486 6.26433L0.536925 11.5794C0.460673 11.6557 0.432777 11.7682 0.467137 11.8704C0.804365 12.8739 1.31354 13.7983 1.95962 14.6086C2.06492 14.7407 2.26116 14.748 2.38055 14.6285L14.6196 2.38167Z" fill="#09090B"/>
<path d="M29.5475 14.2272C28.5753 14.2272 27.7378 14.0197 27.0353 13.6048C26.337 13.1856 25.7973 12.5974 25.416 11.8403C25.039 11.0789 24.8506 10.187 24.8506 9.16465C24.8506 8.15512 25.039 7.2654 25.416 6.49542C25.7973 5.72547 26.3285 5.12447 27.0095 4.69242C27.695 4.2604 28.496 4.04437 29.4128 4.04437C29.9695 4.04437 30.5093 4.13635 31.0318 4.32027C31.5545 4.50422 32.0235 4.79295 32.439 5.1865C32.8545 5.58002 33.1823 6.0912 33.422 6.72C33.662 7.34452 33.782 8.1038 33.782 8.99782V9.67795H25.9365V8.2407H31.8993C31.8993 7.73592 31.7965 7.28892 31.5908 6.89967C31.3853 6.50612 31.096 6.196 30.7235 5.9693C30.355 5.74257 29.9225 5.62922 29.4255 5.62922C28.8858 5.62922 28.4145 5.76182 28.012 6.02702C27.6135 6.28797 27.305 6.63017 27.0868 7.05365C26.8725 7.47285 26.7653 7.92842 26.7653 8.42035V9.54322C26.7653 10.2019 26.881 10.7623 27.1123 11.2243C27.348 11.6863 27.6758 12.0392 28.0955 12.283C28.5153 12.5225 29.0058 12.6423 29.5668 12.6423C29.931 12.6423 30.263 12.591 30.5628 12.4883C30.8628 12.3814 31.1218 12.2231 31.3403 12.0135C31.5588 11.8039 31.7258 11.5451 31.8415 11.2371H33.6773C33.5598 12.5887 32.6765 13.4304 31.4688 13.8999C30.9075 14.1181 30.2673 14.2272 29.5475 14.2272Z" fill="#09090B"/>
<path d="M37.6922 8.17325V14.025H35.771V4.16942H37.615V5.77352H37.7372C37.9642 5.25167 38.3197 4.83245 38.8037 4.51592C39.2922 4.19937 39.9067 4.0411 40.648 4.0411C41.3205 4.0411 41.9095 4.18227 42.415 4.4646C42.9205 4.74262 43.3122 5.15755 43.5907 5.70937C43.8692 6.26117 44.0085 6.94345 44.0085 7.7562V14.025H42.0872V7.98717C42.0872 7.27282 41.901 6.7146 41.5282 6.3125C41.1555 5.90612 40.6437 5.70295 39.9925 5.70295C39.547 5.70295 39.1507 5.7992 38.8037 5.99167C38.4612 6.18417 38.1892 6.4665 37.9877 6.83865C37.7907 7.20652 37.6922 7.6514 37.6922 8.17325Z" fill="#09090B"/>
<path d="M47.943 2.33094V14.0988H46.0218V2.33094H47.943Z" fill="#09090B"/>
<path d="M50.8982 17.975C50.6252 17.975 50.3072 17.985 50.0502 17.8709V16.3132C50.4265 16.3318 50.7142 16.326 50.9882 16.3132C51.2625 16.3004 51.5045 16.1977 51.7142 16.0052C51.9285 15.8127 52.117 15.4983 52.2797 15.062L52.5327 13.9112L49.1395 4.21143H51.0277L53.5297 11.7755H53.6327L56.1295 4.21143H58.014L54.0597 15.5946C53.8712 16.1079 53.6312 16.5421 53.34 16.8971C53.0487 17.2564 52.7017 17.5259 52.299 17.7056C51.8965 17.8852 51.4295 17.975 50.8982 17.975Z" fill="#09090B"/>
<path d="M64.4545 4.23687V5.7768C63.7692 5.7768 63.5125 5.78322 62.9595 5.78322C62.8927 5.78322 62.6632 5.78322 62.5975 5.78322C61.5322 5.78322 60.5682 5.78322 59.2307 5.78322V4.24327L64.4545 4.23687ZM60.6765 2.38895H62.5975C62.5975 2.38895 62.5975 3.87415 62.5975 5.78322C62.5975 5.84832 62.5975 6.12897 62.5975 6.19502C62.5975 7.876 62.5975 9.63397 62.5975 11.205C62.5975 11.5772 62.6532 11.8574 62.7647 12.0456C62.876 12.2295 63.0195 12.3557 63.1952 12.4242C63.375 12.4883 63.57 12.5204 63.7797 12.5204C63.934 12.5204 64.069 12.5097 64.1847 12.4883C64.3002 12.4669 64.3902 12.4498 64.4545 12.437V14.0988C63.7457 14.371 62.8222 14.2509 62.1415 13.9577C61.7045 13.7695 61.351 13.4786 61.0812 13.085C60.8112 12.6915 60.6765 12.1974 60.6765 11.6029V2.38895Z" fill="#09090B"/>
<path d="M68.37 8.2471V14.0989H66.4488V4.24328H68.293V5.84738H68.415C68.642 5.32553 68.9975 4.9063 69.4815 4.58978C69.97 4.27323 70.5848 4.11495 71.3258 4.11495C71.9983 4.11495 72.5873 4.25613 73.0928 4.53845C73.5983 4.81648 73.9903 5.2314 74.2685 5.78323C74.547 6.33503 74.6863 7.0173 74.6863 7.83005V14.0989H72.765V8.06103C72.765 7.34668 72.5788 6.78845 72.206 6.38635C71.8333 5.97998 71.3215 5.7768 70.6703 5.7768C70.2248 5.7768 69.8285 5.87305 69.4815 6.06553C69.139 6.25803 68.867 6.54035 68.6655 6.9125C68.4685 7.28038 68.37 7.72525 68.37 8.2471Z" fill="#09090B"/>
<path d="M82.6683 8.2471V14.0989H80.747V4.24328H82.591V5.84738H82.7133C82.9403 5.32553 83.2958 4.9063 83.7798 4.58978C84.2683 4.27323 84.8828 4.11495 85.624 4.11495C86.2965 4.11495 86.8855 4.25613 87.391 4.53845C87.8963 4.81648 88.2883 5.2314 88.5668 5.78323C88.8453 6.33503 88.9845 7.0173 88.9845 7.83005V14.0989H87.0633V8.06103C87.0633 7.34668 86.8768 6.78845 86.5043 6.38635C86.1315 5.97998 85.6195 5.7768 84.9685 5.7768C84.523 5.7768 84.1268 5.87305 83.7798 6.06553C83.437 6.25803 83.165 6.54035 82.9638 6.9125C82.7668 7.28038 82.6683 7.72525 82.6683 8.2471Z" fill="#09090B"/>
<path d="M95.5473 18C94.7633 18 94.0885 17.8974 93.5233 17.692C92.4118 17.2853 91.2995 16.3295 91.1443 15.087H93.0028C93.3093 15.5859 93.7243 15.9881 94.262 16.2291C94.6005 16.3788 95.0353 16.4537 95.5665 16.4537C96.2948 16.4537 96.8965 16.2761 97.372 15.9211C97.8475 15.5703 98.0853 15.01 98.0853 14.24V12.3023H97.9633C97.8475 12.5119 97.6805 12.745 97.462 13.0017C97.2478 13.2583 96.9523 13.4807 96.5753 13.669C96.1983 13.8572 95.7078 13.9513 95.1038 13.9513C94.3243 13.9513 93.6218 13.7695 92.9963 13.4059C92.3753 13.038 91.8825 12.4969 91.5185 11.7825C91.1585 11.0639 90.9788 10.1806 90.9788 9.13258C90.9788 8.08455 91.1565 7.18628 91.512 6.43768C91.8718 5.6891 92.3645 5.1159 92.9898 4.7181C93.6153 4.316 94.3243 4.11495 95.1168 4.11495C95.7293 4.11495 96.224 4.21763 96.601 4.42295C96.978 4.624 97.2713 4.85925 97.4813 5.12875C97.6955 5.39823 97.8603 5.63565 97.976 5.84098H98.1173V4.24328H100V14.317C100 15.164 99.803 15.8591 99.4088 16.4023C99.0148 16.9456 98.4815 17.3477 97.809 17.6086C97.1408 17.8695 96.3868 18 95.5473 18ZM95.528 12.36C96.0805 12.36 96.5475 12.2317 96.9288 11.975C97.3143 11.7141 97.6055 11.342 97.8025 10.8586C98.0038 10.3709 98.1045 9.78703 98.1045 9.1069C98.1045 8.44388 98.006 7.85998 97.809 7.35523C97.612 6.85048 97.3228 6.45693 96.9415 6.17463C96.5603 5.88803 96.089 5.74473 95.528 5.74473C94.9495 5.74473 94.4678 5.89443 94.0823 6.19388C93.6968 6.48903 93.4053 6.8911 93.2083 7.40015C93.0155 7.90918 92.9193 8.4781 92.9193 9.1069C92.9193 9.75283 93.0178 10.3196 93.2148 10.8073C93.4118 11.2949 93.703 11.6756 94.0885 11.9494C94.4785 12.2231 94.9583 12.36 95.528 12.36Z" fill="#09090B"/>
<path d="M76.6995 14.1018V5.18848C77.1872 5.18848 77.3905 5.1991 77.7455 5.18848C78.0052 5.18848 78.284 5.18848 78.7337 5.18848V14.1018H76.6995Z" fill="#09090B"/>
<path d="M78.7337 3.3326C78.7337 3.89468 78.2782 4.35035 77.7165 4.35035C77.155 4.35035 76.6995 3.89468 76.6995 3.3326C76.6995 2.77053 77.155 2.31487 77.7165 2.31487C78.2782 2.31487 78.7337 2.77053 78.7337 3.3326Z" fill="#09090B"/>
</g>
<defs>
<clipPath id="clip0_696_2906">
<rect width="100" height="18" fill="white"/>
</clipPath>
</defs>
</svg>
