<svg width="408" height="89" viewBox="0 0 408 89" fill="none" xmlns="http://www.w3.org/2000/svg">
<g clip-path="url(#clip0_694_11076)">
<path d="M70.7062 32.7196C70.8449 33.1319 70.7323 33.5856 70.4246 33.8933L48.9916 55.3263C48.5355 55.7824 48.5355 56.5214 48.9916 56.9775L51.3289 59.3148C51.7856 59.7715 52.5264 59.7715 52.983 59.3148L70.6319 41.666C71.3219 40.9759 72.4895 41.3871 72.5407 42.3613C72.5743 43.0018 72.5913 43.6468 72.5913 44.2957C72.5913 64.3412 56.3412 80.5913 36.2957 80.5913C27.7418 80.5913 19.8791 77.6323 13.6752 72.6821C13.1432 72.2576 13.1137 71.4676 13.5949 70.9863L62.9847 21.5965C63.4665 21.1147 64.2585 21.1442 64.6834 21.6768C67.2906 24.9447 69.3453 28.6727 70.7062 32.7196Z" fill="white"/>
<path d="M58.9963 17.6049C59.4776 17.1237 59.448 16.3337 58.916 15.9092C52.7122 10.959 44.8495 8 36.2957 8C16.2501 8 0 24.2501 0 44.2957C0 44.9445 0.0170268 45.5894 0.050658 46.2299C0.10181 47.2041 1.26936 47.6153 1.95946 46.9253L19.6101 29.2746C20.0667 28.818 20.8075 28.818 21.2641 29.2746L23.6015 31.612C24.0576 32.0681 24.0576 32.8071 23.6015 33.2631L2.16672 54.698C1.859 55.0057 1.74644 55.4593 1.88509 55.8717C3.24595 59.9185 5.30068 63.6466 7.90788 66.9144C8.33278 67.447 9.12471 67.4766 9.60652 66.9948L58.9963 17.6049Z" fill="white"/>
<path d="M115.696 65.376C111.772 65.376 108.392 64.5393 105.557 62.866C102.74 61.1754 100.562 58.8034 99.0231 55.75C97.5019 52.6794 96.7413 49.0825 96.7413 44.9596C96.7413 40.8884 97.5019 37.3002 99.0231 34.195C100.562 31.0899 102.705 28.6661 105.454 26.9238C108.219 25.1815 111.452 24.3103 115.151 24.3103C117.398 24.3103 119.576 24.6812 121.685 25.423C123.794 26.1648 125.687 27.3292 127.364 28.9163C129.04 30.5034 130.363 32.5648 131.331 35.1007C132.299 37.6193 132.783 40.6814 132.783 44.2868V47.0297H101.123V41.2334H125.186C125.186 39.1978 124.771 37.3951 123.941 35.8252C123.111 34.2382 121.945 32.9875 120.441 32.0732C118.954 31.1589 117.208 30.7017 115.203 30.7017C113.025 30.7017 111.123 31.2365 109.499 32.3061C107.891 33.3584 106.646 34.7384 105.765 36.4463C104.9 38.1369 104.468 39.9741 104.468 41.9579V46.4863C104.468 49.1429 104.935 51.4028 105.868 53.2659C106.819 55.129 108.142 56.5522 109.836 57.5355C111.53 58.5015 113.509 58.9845 115.773 58.9845C117.243 58.9845 118.582 58.7775 119.792 58.3635C121.002 57.9322 122.048 57.294 122.93 56.4487C123.811 55.6034 124.486 54.5597 124.952 53.3176H132.36C131.886 58.7682 128.322 62.163 123.448 64.0563C121.184 64.9361 118.6 65.376 115.696 65.376Z" fill="white"/>
<path d="M148.505 41.1952V64.7944H140.753V25.0484H148.194V31.5174H148.687C149.603 29.4128 151.038 27.7222 152.991 26.4457C154.962 25.1691 157.442 24.5308 160.433 24.5308C163.147 24.5308 165.524 25.1001 167.563 26.2387C169.603 27.36 171.185 29.0333 172.308 31.2587C173.432 33.484 173.994 36.2355 173.994 39.5132V64.7944H166.241V40.4448C166.241 37.5639 165.489 35.3126 163.985 33.691C162.481 32.0522 160.416 31.2328 157.788 31.2328C155.99 31.2328 154.391 31.6209 152.991 32.3972C151.608 33.1735 150.511 34.3121 149.698 35.8129C148.903 37.2965 148.505 39.0906 148.505 41.1952Z" fill="white"/>
<path d="M189.928 17.4003V64.8585H182.176V17.4003H189.928Z" fill="white"/>
<path d="M201.855 80.4906C200.753 80.4906 199.47 80.5309 198.432 80.0705V73.7886C199.951 73.8637 201.111 73.8404 202.218 73.7886C203.324 73.7369 204.301 73.3229 205.148 72.5466C206.012 71.7703 206.773 70.5023 207.43 68.7427L208.45 64.1015L194.757 24.984H202.377L212.474 55.4888H212.889L222.965 24.984H230.569L214.612 70.8905C213.851 72.9606 212.883 74.7115 211.708 76.1434C210.532 77.5924 209.132 78.6792 207.507 79.4038C205.882 80.1283 203.998 80.4906 201.855 80.4906Z" fill="white"/>
<path d="M256.56 25.0866V31.2969C253.794 31.2969 252.758 31.3228 250.526 31.3228C250.257 31.3228 249.331 31.3228 249.066 31.3228C244.767 31.3228 240.877 31.3228 235.479 31.3228V25.1125L256.56 25.0866ZM241.313 17.3354H245.19H249.066C249.066 17.3354 249.066 23.6238 249.066 31.3228C249.066 31.5853 249.066 32.7172 249.066 32.9835C249.066 39.7627 249.066 46.8524 249.066 53.1883C249.066 54.6891 249.291 55.819 249.74 56.5781C250.19 57.3198 250.769 57.8287 251.477 58.1048C252.203 58.3635 252.99 58.4929 253.837 58.4929C254.459 58.4929 255.004 58.4498 255.471 58.3635C255.937 58.2773 256.3 58.2083 256.56 58.1565V64.8585C253.7 65.9562 249.972 65.4718 247.225 64.2892C245.462 63.5302 244.036 62.3571 242.947 60.77C241.858 59.1829 241.313 57.1905 241.313 54.7926V17.3354Z" fill="white"/>
<path d="M272.36 41.2593V64.8585H264.607V25.1125H272.049V31.5815H272.542C273.458 29.4769 274.893 27.7863 276.846 26.5098C278.817 25.2332 281.297 24.5949 284.288 24.5949C287.002 24.5949 289.378 25.1642 291.418 26.3028C293.458 27.4241 295.04 29.0974 296.163 31.3228C297.287 33.5481 297.849 36.2997 297.849 39.5773V64.8585H290.096V40.5089C290.096 37.628 289.344 35.3767 287.84 33.7551C286.336 32.1163 284.27 31.2969 281.643 31.2969C279.845 31.2969 278.246 31.685 276.846 32.4613C275.463 33.2376 274.365 34.3762 273.553 35.877C272.758 37.3606 272.36 39.1547 272.36 41.2593Z" fill="white"/>
<path d="M330.059 41.2593V64.8585H322.306V25.1125H329.748V31.5815H330.241C331.157 29.4769 332.592 27.7863 334.545 26.5098C336.516 25.2332 338.996 24.5949 341.987 24.5949C344.701 24.5949 347.077 25.1642 349.117 26.3028C351.157 27.4241 352.739 29.0974 353.862 31.3228C354.986 33.5481 355.548 36.2997 355.548 39.5773V64.8585H347.795V40.5089C347.795 37.628 347.043 35.3767 345.539 33.7551C344.035 32.1163 341.969 31.2969 339.342 31.2969C337.544 31.2969 335.945 31.685 334.545 32.4613C333.162 33.2376 332.064 34.3762 331.252 35.877C330.457 37.3606 330.059 39.1547 330.059 41.2593Z" fill="white"/>
<path d="M382.031 80.5913C378.868 80.5913 376.145 80.1772 373.863 79.3492C369.378 77.7091 364.89 73.8544 364.263 68.8434H371.763C373.001 70.8557 374.675 72.4776 376.845 73.4494C378.211 74.0532 379.965 74.3551 382.109 74.3551C385.048 74.3551 387.476 73.6392 389.395 72.2073C391.314 70.7928 392.273 68.5329 392.273 65.4277V57.6131H391.781C391.314 58.4584 390.64 59.3986 389.758 60.4336C388.894 61.4687 387.701 62.3657 386.18 63.1248C384.659 63.8838 382.679 64.2633 380.242 64.2633C377.096 64.2633 374.261 63.5302 371.737 62.0638C369.231 60.5803 367.243 58.398 365.774 55.5171C364.322 52.619 363.596 49.0567 363.596 44.8302C363.596 40.6037 364.313 36.9811 365.748 33.9622C367.2 30.9433 369.188 28.6316 371.711 27.0273C374.235 25.4057 377.096 24.5949 380.294 24.5949C382.766 24.5949 384.762 25.009 386.284 25.837C387.805 26.6478 388.989 27.5966 389.836 28.6834C390.7 29.7702 391.366 30.7276 391.832 31.5557H392.403V25.1125H400V65.7383C400 69.1539 399.205 71.9572 397.615 74.1481C396.024 76.3389 393.872 77.9605 391.158 79.0128C388.462 80.0651 385.419 80.5913 382.031 80.5913ZM381.953 57.846C384.183 57.846 386.067 57.3285 387.606 56.2934C389.162 55.2411 390.337 53.7403 391.132 51.7909C391.945 49.8243 392.351 47.4696 392.351 44.7267C392.351 42.0528 391.953 39.6981 391.158 37.6625C390.363 35.6269 389.196 34.0398 387.658 32.9012C386.119 31.7454 384.218 31.1675 381.953 31.1675C379.62 31.1675 377.675 31.7713 376.119 32.9789C374.564 34.1692 373.388 35.7907 372.593 37.8436C371.815 39.8965 371.426 42.1908 371.426 44.7267C371.426 47.3316 371.824 49.6173 372.619 51.5839C373.414 53.5505 374.59 55.0859 376.145 56.1899C377.718 57.294 379.654 57.846 381.953 57.846Z" fill="white"/>
<path d="M305.973 64.8703V28.9243C310.004 29.9296 310.081 30.0459 314.182 28.9243V64.8703H305.973Z" fill="white"/>
<path d="M314.182 21.1984C314.182 23.4652 312.344 25.3028 310.078 25.3028C307.811 25.3028 305.973 23.4652 305.973 21.1984C305.973 18.9316 307.811 17.094 310.078 17.094C312.344 17.094 314.182 18.9316 314.182 21.1984Z" fill="white"/>
</g>
<defs>
<clipPath id="clip0_694_11076">
<rect width="400" height="73" fill="white" transform="translate(0 8)"/>
</clipPath>
</defs>
</svg>
